<svg id="Layer_1" data-name="Layer 1" xmlns="http://www.w3.org/2000/svg" viewBox="0 0 810 910"><defs><style>.cls-1,.cls-3{fill:#2d2d2d;}.cls-2{fill:#ff4200;}.cls-3{font-size:20.27px;font-family:Roboto-Bold, Roboto;font-weight:700;}</style></defs><title>Artboard 1 copy</title><path class="cls-1" d="M701.25,825.5H108.75V84.5h592.5Zm-576.5-16h560.5v-709H124.75Z"/><polygon class="cls-1" points="583.87 128.31 413.46 345.55 439.16 415.46 547.19 277.09 504.23 495.03 583.87 495.03 656.69 128.31 583.87 128.31"/><polygon class="cls-2" points="332.65 185.7 263.5 185.7 153.31 775.69 232.94 775.69 313.79 337.81 371.07 502.57 421.01 438.38 332.65 185.7"/><polygon class="cls-1" points="65.49 31.67 57.28 42.13 58.52 45.5 63.73 38.84 61.66 49.34 65.49 49.34 69 31.67 65.49 31.67"/><polygon class="cls-2" points="53.39 34.43 50.06 34.43 44.75 62.86 48.59 62.86 52.48 41.76 55.24 49.7 57.65 46.61 53.39 34.43"/><path class="cls-1" d="M72.5,66.83H41.25V28H72.5ZM43.07,65H70.68V29.82H43.07Z"/><text class="cls-3" transform="translate(81.34 54.96)">Mobile Size</text></svg>