<svg id="Layer_1" data-name="Layer 1" xmlns="http://www.w3.org/2000/svg" viewBox="0 0 1529 1080"><defs><style>.cls-1{fill:#2d2d2d;}.cls-2{fill:#ff4200;}</style></defs><title>Artboard 1</title><path class="cls-1" d="M449,701.86h30.75V809.65h66.6V834.7H449Z"/><path class="cls-1" d="M668.23,810V834.7H565.37V701.86H665.76v24.67H595.93v28.84H657.6v23.91H595.93V810Z"/><path class="cls-1" d="M430,810V834.7H327.13V701.86H427.52v24.67H357.68v28.84h61.68v23.91H357.68V810Z"/><path class="cls-1" d="M719.18,828.15a65.76,65.76,0,0,1-25.81-24.48Q684,788,684,768.28t9.39-35.4a65.81,65.81,0,0,1,25.81-24.47q16.41-8.83,36.91-8.83a77.42,77.42,0,0,1,31.22,6.07,62.48,62.48,0,0,1,23.43,17.46L791,741.33q-13.49-15.55-33.4-15.56a44.33,44.33,0,0,0-22,5.41,38.37,38.37,0,0,0-15.08,15.08,47.5,47.5,0,0,0,0,44,38.46,38.46,0,0,0,15.08,15.09,44.33,44.33,0,0,0,22,5.41q19.92,0,33.4-15.75l19.73,18.21a61.38,61.38,0,0,1-23.53,17.65A78.07,78.07,0,0,1,755.9,837,76.32,76.32,0,0,1,719.18,828.15Z"/><path class="cls-1" d="M866.38,726.91H823.87v-25H939.63v25H897.12V834.7H866.38Z"/><path class="cls-1" d="M957.89,701.86h30.75V834.7H957.89Z"/><path class="cls-1" d="M1047.18,828.06a66.14,66.14,0,0,1-26-24.58,70.63,70.63,0,0,1,0-70.41,66.18,66.18,0,0,1,26-24.57q16.6-8.93,37.29-8.92t37.19,8.92a67.76,67.76,0,0,1,0,119.56q-16.5,8.91-37.19,8.92T1047.18,828.06Zm58.54-22.68a38.87,38.87,0,0,0,14.9-15.09,47.5,47.5,0,0,0,0-44,38.78,38.78,0,0,0-14.9-15.08,44.46,44.46,0,0,0-42.51,0,38.78,38.78,0,0,0-14.9,15.08,47.58,47.58,0,0,0,0,44,38.87,38.87,0,0,0,14.9,15.09,44.46,44.46,0,0,0,42.51,0Z"/><path class="cls-1" d="M1302.14,701.86V834.7H1276.9L1210.67,754V834.7H1180.3V701.86h25.43l66,80.65V701.86Z"/><path class="cls-1" d="M380.42,245.33V380H354.84l-67.13-81.75V380H256.93V245.33h25.78l66.93,81.75V245.33Z"/><path class="cls-1" d="M504.48,351.12H442L430.05,380H398.12l60-134.65H488.9L549.11,380h-32.7Zm-9.81-23.66-21.34-51.55L452,327.46Z"/><path class="cls-1" d="M584.31,270.72H541.22V245.33H658.56v25.39H615.47V380H584.31Z"/><path class="cls-1" d="M680.49,245.33h31.16V380H680.49Z"/><path class="cls-1" d="M774.45,373.24a67.06,67.06,0,0,1-26.35-24.91,71.62,71.62,0,0,1,0-71.36,67.13,67.13,0,0,1,26.35-24.91q16.83-9,37.8-9t37.7,9a68.68,68.68,0,0,1,0,121.18q-16.74,9-37.7,9T774.45,373.24Zm59.34-23A39.35,39.35,0,0,0,848.89,335a48.17,48.17,0,0,0,0-44.63,39.28,39.28,0,0,0-15.1-15.29,45.09,45.09,0,0,0-43.09,0,39.35,39.35,0,0,0-15.1,15.29,48.17,48.17,0,0,0,0,44.63,39.42,39.42,0,0,0,15.1,15.29,45.09,45.09,0,0,0,43.09,0Z"/><path class="cls-1" d="M1032.87,245.33V380h-25.58l-67.13-81.75V380H909.38V245.33h25.78l66.93,81.75V245.33Z"/><path class="cls-1" d="M1156.94,351.12h-62.52L1082.5,380h-31.93l60-134.65h30.78L1201.56,380h-32.7Zm-9.81-23.66-21.35-51.55-21.35,51.55Z"/><path class="cls-1" d="M1219.07,245.33h31.16V354.59h67.51V380h-98.67Z"/><polygon class="cls-1" points="465.16 416.11 354.38 557.34 371.09 602.79 441.32 512.84 413.39 654.51 465.16 654.51 512.5 416.11 465.16 416.11"/><polygon class="cls-2" points="301.84 453.43 256.88 453.43 185.26 836.98 237.02 836.98 289.58 552.31 326.82 659.42 359.29 617.69 301.84 453.43"/><path class="cls-1" d="M569.7,645.66q-26.24-12.95-40.19-36.44t-14-54.15q0-40.53,18.57-73.06a133.86,133.86,0,0,1,52.1-51.25Q619.75,412,663,412q35.76,0,62,13t40.19,36.44q13.95,23.5,14,54.15,0,40.53-18.56,73.05a133.84,133.84,0,0,1-52.11,51.26q-33.54,18.74-76.8,18.73Q595.92,658.6,569.7,645.66ZM682.43,599a83.62,83.62,0,0,0,30.31-33.71q10.54-21.12,10.56-46.66,0-27.25-17-43.43t-48-16.18q-26.22,0-46,12.61A83.54,83.54,0,0,0,582,505.34Q571.4,526.46,571.4,552q0,27.25,17,43.42t48,16.18Q662.67,611.6,682.43,599Z"/><path class="cls-1" d="M858.33,645.66q-26.73-12.95-41-36.44T803,555.07q0-40.53,18.56-73.06t52.28-51.25Q907.55,412,951.14,412q32,0,56.54,10.9t37.12,31.34L1005,487Q985.89,459,947.39,459q-26.22,0-46.31,12.27a84.06,84.06,0,0,0-31.17,33.37q-11.07,21.12-11.06,47,0,27.58,17.53,43.76T925.6,611.6q37.8,0,63.34-27.58l32.7,33.37q-35.43,41.22-100.81,41.21Q885.07,658.6,858.33,645.66Z"/><path class="cls-1" d="M1190.52,530.54l82.76,128.06h-62L1150,565.28l-38.49,34.06-11.92,59.26h-54.83l47.68-238.4h54.84l-21.8,109.32L1249.1,420.2h66.75Z"/><path class="cls-1" d="M1410.5,985.5H118.5V94.5h1292Zm-1276-16h1260v-859H134.5Z"/></svg>